<svg xmlns="http://www.w3.org/2000/svg" width="72" height="43" viewBox="0 0 72 43">
  <g fill="none" fill-rule="evenodd" transform="translate(1 1)">
    <path fill="#FF516B" d="M45.36396 3.13604C48.87867 6.65075 48.87867 12.34925 45.36396 15.86396 41.84925 19.37867 36.15075 19.37867 32.63604 15.86396 29.12133 12.34925 29.12133 6.65075 32.63604 3.13604 36.15075-.37867 41.84925-.37867 45.36396 3.13604M39 24.5L39.0000017 24.5C33.6097517 24.6482723 28.3289717 26.055791 23.5800017 28.61L23.5800016 28.61C21.0658096 29.905919 19.4899216 32.50148 19.5000016 35.33L19.5000016 36.71 19.5000016 36.7099989C19.4834324 38.2507839 20.7190546 39.5132709 22.2598396 39.5298399 22.269893 39.529948 22.2799469 39.5300018 22.290001 39.5300012L55.710001 39.5300012 55.7100008 39.5300012C57.2508758 39.5300904 58.5000728 38.2810382 58.5001628 36.7401632 58.5001634 36.7301092 58.5001097 36.7200553 58.5000016 36.7100018L58.5000016 35.3300018 58.5000018 35.330563C58.4990289 32.51284 56.9249838 29.931433 54.4205118 28.640263L54.4205154 28.6402649C49.6739754 26.0754479 44.3928954 24.6575249 39.0000354 24.4999949L39 24.5z"/>
    <path stroke="#303C42" stroke-linecap="round" stroke-linejoin="round" stroke-width="3" d="M41.36396 3.13604C44.87867 6.65075 44.87867 12.34925 41.36396 15.86396 37.84925 19.37867 32.15075 19.37867 28.63604 15.86396 25.12133 12.34925 25.12133 6.65075 28.63604 3.13604 32.15075-.37867 37.84925-.37867 41.36396 3.13604M35 24.5L35.0000017 24.5C29.6097517 24.6482723 24.3289717 26.055791 19.5800017 28.61L19.5800016 28.61C17.0658096 29.905919 15.4899216 32.50148 15.5000016 35.33L15.5000016 36.71 15.5000016 36.7099989C15.4834324 38.2507839 16.7190546 39.5132709 18.2598396 39.5298399 18.269893 39.529948 18.2799469 39.5300018 18.290001 39.5300012L51.710001 39.5300012 51.7100008 39.5300012C53.2508758 39.5300904 54.5000728 38.2810382 54.5001628 36.7401632 54.5001634 36.7301092 54.5001097 36.7200553 54.5000016 36.7100018L54.5000016 35.3300018 54.5000018 35.330563C54.4990289 32.51284 52.9249838 29.931433 50.4205118 28.640263L50.4205154 28.6402649C45.6739754 26.0754479 40.3928954 24.6575249 35.0000354 24.4999949L35 24.5z"/>
    <g stroke="#303C42" stroke-linecap="round" stroke-linejoin="round" stroke-width="3">
      <path d="M16.74266 2.257367C19.085807 4.600514 19.085807 8.399507 16.74266 10.742657 14.399513 13.085804 10.60052 13.085804 8.25737 10.742657 5.914223 8.39951 5.914223 4.600517 8.25737 2.257367 10.600517-.08578 14.39951-.08578 16.74266 2.257367M24.200006 26.57L24.200006 26.57C24.3908498 26.252579 24.4943492 25.890332 24.500006 25.52L24.500006 24.56 24.5000059 24.5600288C24.5038294 22.7143838 23.5647589 20.9946188 22.0100299 20.0000288L22.0100308 20.0000294C19.1565658 18.1863404 15.8776708 17.1519854 12.5000008 16.9999994L12.4999999 16.9999994C9.12232992 17.1519725 5.84344992 18.1863194 2.98999992 19.9999994L2.99000034 19.9999991C1.43526534 20.9945951.496187339 22.7143541.500000339 24.5599991L.500000339 25.5199991.500000299 25.5199997C.431097499 26.5370837 1.1937203 27.4201187 2.2100003 27.4999997L21.9200003 27.4999997M61.74254 2.257367C64.085687 4.600514 64.085687 8.399507 61.74254 10.742657 59.399393 13.085804 55.6004 13.085804 53.25725 10.742657 50.914103 8.39951 50.914103 4.600517 53.25725 2.257367 55.600397-.08578 59.39939-.08578 61.74254 2.257367M45.799922 26.56997L45.799922 26.5699701C45.6090782 26.2525491 45.5055788 25.8903021 45.499922 25.5199701L45.499922 24.5599701 45.4999221 24.5599984C45.4960988 22.7143534 46.4351691 20.9945884 47.9898981 19.9999984L47.9899004 19.999997C50.8433594 18.186317 54.1222304 17.151971 57.4999004 16.999997L57.4998996 16.9999969C60.8775696 17.1519697 64.1564496 18.1863169 67.0098996 19.9999969L67.0098994 19.9999968C68.6012014 21.0172188 69.5454244 22.7918988 69.4998994 24.6799968L69.4998994 25.6399968 69.4998995 25.6399975C69.5688023 26.6570815 68.8061795 27.5401165 67.7898995 27.6199975L48.0799295 27.6199975"/>
    </g>
  </g>
</svg>
