<svg xmlns="http://www.w3.org/2000/svg" width="72" height="67" viewBox="0 0 72 67">
  <g fill="none" fill-rule="evenodd" transform="translate(1 1)">
    <rect width="8" height="48" x="61" y="17" fill="#FF516B"/>
    <g stroke="#303C42" stroke-linecap="round" stroke-linejoin="round" stroke-width="3">
      <path d="M0.5,64 L69.5,64"/>
      <polygon points="21.5 27.5 30.5 27.5 30.5 63.5 21.5 63.5"/>
      <polygon points="39.5 36.5 48.5 36.5 48.5 63.5 39.5 63.5"/>
      <polygon points="57.5 15.5 66.5 15.5 66.5 63.5 57.5 63.5"/>
      <polygon points="3.5 45.5 12.5 45.5 12.5 63.5 3.5 63.5"/>
      <path d="M63.060707,0.939326 C63.646493,1.525112 63.646493,2.474861 63.060707,3.060647 C62.474921,3.646433 61.525172,3.646433 60.939386,3.060647 C60.3536,2.474861 60.3536,1.525112 60.939386,0.939326 C61.525172,0.35354 62.474921,0.35354 63.060707,0.939326"/>
      <path d="M2.707107,0.585786 C3.292893,1.171572 3.292893,2.121321 2.707107,2.707107 C2.121321,3.292893 1.171572,3.292893 0.585786,2.707107 C-1.38777878e-16,2.121321 -1.38777878e-16,1.171572 0.585786,0.585786 C1.171572,-1.38777878e-16 2.121321,-1.38777878e-16 2.707107,0.585786" transform="translate(42.354 21.354)"/>
      <path d="M2.707107,0.585786 C3.292893,1.171572 3.292893,2.121321 2.707107,2.707107 C2.121321,3.292893 1.171572,3.292893 0.585786,2.707107 C-1.38777878e-16,2.121321 -1.38777878e-16,1.171572 0.585786,0.585786 C1.171572,-1.38777878e-16 2.121321,-1.38777878e-16 2.707107,0.585786" transform="translate(24.354 12.354)"/>
      <path d="M2.707107,0.585786 C3.292893,1.171572 3.292893,2.121321 2.707107,2.707107 C2.121321,3.292893 1.171572,3.292893 0.585786,2.707107 C-1.38777878e-16,2.121321 -1.38777878e-16,1.171572 0.585786,0.585786 C1.171572,-1.38777878e-16 2.121321,-1.38777878e-16 2.707107,0.585786" transform="translate(6.354 30.354)"/>
      <polyline points="8 32 26 14 44 23 62 2"/>
    </g>
  </g>
</svg>
