<svg xmlns="http://www.w3.org/2000/svg" width="69" height="66" viewBox="0 0 69 66">
  <g fill="none" fill-rule="evenodd" transform="translate(1 1)">
    <path fill="#FF516B" d="M6,10 L66,10 L66,10 C67.1045695,10 68,10.8954305 68,12 L68,23 L4,23 L4,12 L4,12 C4,10.8954305 4.8954305,10 6,10 Z"/>
    <g stroke="#303C42" stroke-linecap="round" stroke-linejoin="round" stroke-width="3">
      <path d="M48.5,63.5 L5,63.5 C2.6,63.5 0.5,61.4 0.5,59 L0.5,11 C0.5,8.6 2.6,6.5 5,6.5 L59,6.5 C61.4,6.5 63.5,8.6 63.5,11 L63.5,48.5"/>
      <path d="M2.707107,0.585786 C3.292893,1.171572 3.292893,2.121321 2.707107,2.707107 C2.121321,3.292893 1.171572,3.292893 0.585786,2.707107 C-1.94289029e-16,2.121321 -1.94289029e-16,1.171572 0.585786,0.585786 C1.171572,-1.38777878e-16 2.121321,-1.38777878e-16 2.707107,0.585786" transform="translate(15.354 12.354)"/>
      <path d="M2.707107,0.585786 C3.292893,1.171572 3.292893,2.121321 2.707107,2.707107 C2.121321,3.292893 1.171572,3.292893 0.585786,2.707107 C-1.38777878e-16,2.121321 -1.38777878e-16,1.171572 0.585786,0.585786 C1.171572,-1.38777878e-16 2.121321,-1.38777878e-16 2.707107,0.585786" transform="translate(45.354 12.354)"/>
      <path d="M0,13.5 L0,0" transform="translate(18.5 .5)"/>
      <path d="M0,13.5 L0,0" transform="translate(48.5 .5)"/>
      <path d="M.5 20L63.5 20M63.5 48.5L53 48.5C50.6 48.5 48.5 50.6 48.5 53L48.5 63.5 63.5 48.5zM21.5 38C21.5 35.6 23.6 33.5 26 33.5L26 33.5C28.4 33.5 30.5 35.6 30.5 38L30.5 38C30.5 40.4 28.4 42.5 26 42.5L26 42.5C28.4 42.5 30.5 44.6 30.5 47L30.5 47C30.5 49.4 28.4 51.5 26 51.5L26 51.5C23.6 51.5 21.5 49.4 21.5 47"/>
      <polyline points="36.5 33.5 39.5 33.5 39.5 51.5"/>
    </g>
  </g>
</svg>
