<svg xmlns="http://www.w3.org/2000/svg" width="150" height="50" viewBox="0 0 150 50">
  <g fill="none" fill-rule="evenodd">
    <path stroke="#383EFF" stroke-width="3" d="M14.0789647,20.3370177 L2.27488406,47.877551 L47.1734694,47.877551 L47.1734694,4.01284118 L22.0482285,26.0288033 L14.0789647,20.3370177 Z"/>
    <path stroke="#FF516B" stroke-width="3" d="M1.5,27.4322588 L1.5,47.877551 L47.1734694,47.877551 L47.1734694,11.508862 L23.5751418,36.7916162 L1.5,27.4322588 Z" style="mix-blend-mode:multiply"/>
    <path fill="#000" d="M71.67,3.79 L66.4025,11.49 L66.4025,16.25 L63.095,16.25 L63.095,11.4725 L57.8625,3.79 L61.5725,3.79 L64.7225,8.76 L67.925,3.79 L71.67,3.79 Z M74.225,15.62875 C73.2799953,15.1095807 72.5537525,14.3658382 72.04625,13.3975 C71.5387475,12.4291618 71.285,11.2975065 71.285,10.0025 C71.285,8.70749353 71.5416641,7.58167145 72.055,6.625 C72.5683359,5.66832855 73.2945786,4.93041926 74.23375,4.41125 C75.1729214,3.89208074 76.278327,3.6325 77.55,3.6325 C78.821673,3.6325 79.9270786,3.89208074 80.86625,4.41125 C81.8054214,4.93041926 82.5258308,5.66832855 83.0275,6.625 C83.5291692,7.58167145 83.78,8.70749353 83.78,10.0025 C83.78,11.2975065 83.5291692,12.4291618 83.0275,13.3975 C82.5258308,14.3658382 81.8054214,15.1095807 80.86625,15.62875 C79.9270786,16.1479193 78.821673,16.4075 77.55,16.4075 C76.278327,16.4075 75.1700047,16.1479193 74.225,15.62875 Z M79.74625,12.9075 C80.277086,12.2424967 80.5425,11.274173 80.5425,10.0025 C80.5425,8.7424937 80.277086,7.78291996 79.74625,7.12375 C79.215414,6.46458004 78.483338,6.135 77.55,6.135 C76.616662,6.135 75.8875026,6.4616634 75.3625,7.115 C74.8374974,7.7683366 74.575,8.73082697 74.575,10.0025 C74.575,11.2858398 74.8374974,12.25708 75.3625,12.91625 C75.8875026,13.57542 76.616662,13.905 77.55,13.905 C78.483338,13.905 79.215414,13.5725033 79.74625,12.9075 Z M87.0525,15.03375 C86.119162,14.1179121 85.6525,12.7733422 85.6525,11 L85.6525,3.79 L88.855,3.79 L88.855,11.1225 C88.855,12.0208378 89.056248,12.7091643 89.45875,13.1875 C89.861252,13.6658357 90.4358296,13.905 91.1825,13.905 C91.9175037,13.905 92.4833314,13.6629191 92.88,13.17875 C93.2766687,12.6945809 93.475,12.0091711 93.475,11.1225 L93.475,3.79 L96.7125,3.79 L96.7125,11 C96.7125,12.7500087 96.2370881,14.0887454 95.28625,15.01625 C94.3354119,15.9437546 92.9675089,16.4075 91.1825,16.4075 C89.3624909,16.4075 87.985838,15.9495879 87.0525,15.03375 Z M109.6975,16.25 L106.215,16.25 L104.605,12.1025 C104.418332,11.635831 103.980837,11.4025 103.2925,11.4025 L102.1025,11.4025 L102.1025,16.25 L98.865,16.25 L98.865,3.79 L104.6575,3.79 C106.162508,3.79 107.294163,4.11374676 108.0525,4.76125 C108.810837,5.40875324 109.19,6.33332732 109.19,7.535 C109.19,8.3750042 108.965419,9.10124694 108.51625,9.71375 C108.067081,10.3262531 107.434171,10.7608321 106.6175,11.0175 C106.967502,11.0875003 107.282499,11.250832 107.5625,11.5075 C107.842501,11.764168 108.064166,12.1083312 108.2275,12.54 L109.6975,16.25 Z M105.655,8.62875 C105.970002,8.41291559 106.1275,8.07750228 106.1275,7.6225 C106.1275,7.14416428 105.972918,6.80000105 105.66375,6.59 C105.354582,6.37999895 104.84417,6.275 104.1325,6.275 L102.0675,6.275 L102.0675,8.9525 L104.1325,8.9525 C104.832504,8.9525 105.339998,8.84458441 105.655,8.62875 Z M71.18,25.465 L71.18,31.7125 C70.5149967,32.0158348 69.7712541,32.2491658 68.94875,32.4125 C68.1262459,32.5758341 67.2833376,32.6575 66.42,32.6575 C65.0666599,32.6575 63.891255,32.4008359 62.89375,31.8875 C61.896245,31.3741641 61.1291693,30.6362548 60.5925,29.67375 C60.0558306,28.7112452 59.7875,27.5708399 59.7875,26.2525 C59.7875,24.9691603 60.0558306,23.8462548 60.5925,22.88375 C61.1291693,21.9212452 61.8874951,21.1804193 62.8675,20.66125 C63.8475049,20.1420807 64.9908268,19.8825 66.2975,19.8825 C67.1958378,19.8825 68.0445793,19.9991655 68.84375,20.2325 C69.6429207,20.4658345 70.2933308,20.7866646 70.795,21.195 L69.7625,23.5225 C69.1908305,23.1491648 68.639586,22.8779175 68.10875,22.70875 C67.577914,22.5395825 67.0091697,22.455 66.4025,22.455 C65.2941611,22.455 64.4687527,22.7670802 63.92625,23.39125 C63.3837473,24.0154198 63.1125,24.9691603 63.1125,26.2525 C63.1125,27.5825066 63.3954138,28.5683301 63.96125,29.21 C64.5270862,29.8516699 65.3991608,30.1725 66.5775,30.1725 C67.1258361,30.1725 67.6741639,30.1141673 68.2225,29.9975 L68.2225,27.6875 L66.0525,27.6875 L66.0525,25.465 L71.18,25.465 Z M75.87,31.87875 C74.9249953,31.3595807 74.1987525,30.6158382 73.69125,29.6475 C73.1837475,28.6791618 72.93,27.5475065 72.93,26.2525 C72.93,24.9574935 73.1866641,23.8316715 73.7,22.875 C74.2133359,21.9183285 74.9395786,21.1804193 75.87875,20.66125 C76.8179214,20.1420807 77.923327,19.8825 79.195,19.8825 C80.466673,19.8825 81.5720786,20.1420807 82.51125,20.66125 C83.4504214,21.1804193 84.1708308,21.9183285 84.6725,22.875 C85.1741692,23.8316715 85.425,24.9574935 85.425,26.2525 C85.425,27.5475065 85.1741692,28.6791618 84.6725,29.6475 C84.1708308,30.6158382 83.4504214,31.3595807 82.51125,31.87875 C81.5720786,32.3979193 80.466673,32.6575 79.195,32.6575 C77.923327,32.6575 76.8150047,32.3979193 75.87,31.87875 Z M81.39125,29.1575 C81.922086,28.4924967 82.1875,27.524173 82.1875,26.2525 C82.1875,24.9924937 81.922086,24.03292 81.39125,23.37375 C80.860414,22.71458 80.128338,22.385 79.195,22.385 C78.261662,22.385 77.5325026,22.7116634 77.0075,23.365 C76.4824974,24.0183366 76.22,24.980827 76.22,26.2525 C76.22,27.5358397 76.4824974,28.50708 77.0075,29.16625 C77.5325026,29.82542 78.261662,30.155 79.195,30.155 C80.128338,30.155 80.860414,29.8225033 81.39125,29.1575 Z M87.35,32.5 L87.35,20.04 L90.64,20.04 L90.64,29.84 L95.9075,29.84 L95.9075,32.5 L87.35,32.5 Z M97.4825,32.5 L97.4825,20.04 L106.18,20.04 L106.18,22.6125 L100.72,22.6125 L100.72,24.8875 L105.83,24.8875 L105.83,27.4425 L100.72,27.4425 L100.72,32.5 L97.4825,32.5 Z M70.1825,36.29 L72.7375,36.29 L72.7375,48.75 L69.8675,48.75 L69.85,43.045 L67.4875,48.75 L65.405,48.75 L63.025,43.115 L63.025,48.75 L60.1725,48.75 L60.1725,36.29 L62.745,36.29 L66.4725,44.795 L70.1825,36.29 Z M84.5325,48.75 L83.43,46.1775 L77.9,46.1775 L76.7975,48.75 L73.5075,48.75 L79.335,36.29 L81.925,36.29 L87.77,48.75 L84.5325,48.75 Z M78.9675,43.71 L82.3625,43.71 L80.665,39.7725 L78.9675,43.71 Z M96.5375,36.29 L99.635,36.29 L99.635,48.75 L97.2025,48.75 L91.55,41.68 L91.55,48.75 L88.4875,48.75 L88.4875,36.29 L90.885,36.29 L96.5375,43.325 L96.5375,36.29 Z M111.395,48.75 L110.2925,46.1775 L104.7625,46.1775 L103.66,48.75 L100.37,48.75 L106.1975,36.29 L108.7875,36.29 L114.6325,48.75 L111.395,48.75 Z M105.83,43.71 L109.225,43.71 L107.5275,39.7725 L105.83,43.71 Z M126.41,41.715 L126.41,47.9625 C125.744997,48.2658348 125.001254,48.4991658 124.17875,48.6625 C123.356246,48.8258341 122.513338,48.9075 121.65,48.9075 C120.29666,48.9075 119.121255,48.6508359 118.12375,48.1375 C117.126245,47.6241641 116.359169,46.8862548 115.8225,45.92375 C115.285831,44.9612452 115.0175,43.8208399 115.0175,42.5025 C115.0175,41.2191603 115.285831,40.0962548 115.8225,39.13375 C116.359169,38.1712452 117.117495,37.4304193 118.0975,36.91125 C119.077505,36.3920807 120.220827,36.1325 121.5275,36.1325 C122.425838,36.1325 123.274579,36.2491655 124.07375,36.4825 C124.872921,36.7158345 125.523331,37.0366646 126.025,37.445 L124.9925,39.7725 C124.42083,39.3991648 123.869586,39.1279175 123.33875,38.95875 C122.807914,38.7895825 122.23917,38.705 121.6325,38.705 C120.524161,38.705 119.698753,39.0170802 119.15625,39.64125 C118.613747,40.2654198 118.3425,41.2191603 118.3425,42.5025 C118.3425,43.8325066 118.625414,44.8183301 119.19125,45.46 C119.757086,46.1016699 120.629161,46.4225 121.8075,46.4225 C122.355836,46.4225 122.904164,46.3641673 123.4525,46.2475 L123.4525,43.9375 L121.2825,43.9375 L121.2825,41.715 L126.41,41.715 Z M128.4925,48.75 L128.4925,36.29 L137.3825,36.29 L137.3825,38.81 L131.695,38.81 L131.695,41.155 L137.015,41.155 L137.015,43.675 L131.695,43.675 L131.695,46.23 L137.3825,46.23 L137.3825,48.75 L128.4925,48.75 Z M149.895,48.75 L146.4125,48.75 L144.8025,44.6025 C144.615832,44.135831 144.178337,43.9025 143.49,43.9025 L142.3,43.9025 L142.3,48.75 L139.0625,48.75 L139.0625,36.29 L144.855,36.29 C146.360008,36.29 147.491663,36.6137468 148.25,37.26125 C149.008337,37.9087532 149.3875,38.8333273 149.3875,40.035 C149.3875,40.8750042 149.162919,41.6012469 148.71375,42.21375 C148.264581,42.8262531 147.631671,43.260832 146.815,43.5175 C147.165002,43.5875003 147.479999,43.750832 147.76,44.0075 C148.040001,44.264168 148.261666,44.6083312 148.425,45.04 L149.895,48.75 Z M145.8525,41.12875 C146.167502,40.9129156 146.325,40.5775023 146.325,40.1225 C146.325,39.6441643 146.170418,39.300001 145.86125,39.09 C145.552082,38.879999 145.04167,38.775 144.33,38.775 L142.265,38.775 L142.265,41.4525 L144.33,41.4525 C145.030004,41.4525 145.537498,41.3445844 145.8525,41.12875 Z"/>
  </g>
</svg>
